<svg width="16" height="16" viewBox="0 0 16 16" fill="none" xmlns="http://www.w3.org/2000/svg">
<path d="M8 14C7.81111 14 7.65289 13.936 7.52534 13.808C7.39778 13.68 7.33378 13.5218 7.33334 13.3333V8.66667H2.66667C2.47778 8.66667 2.31956 8.60267 2.192 8.47467C2.06445 8.34667 2.00045 8.18845 2 8C1.99956 7.81156 2.06356 7.65334 2.192 7.52534C2.32045 7.39734 2.47867 7.33334 2.66667 7.33334H7.33334V2.66667C7.33334 2.47778 7.39734 2.31956 7.52534 2.192C7.65334 2.06445 7.81156 2.00045 8 2C8.18845 1.99956 8.34689 2.06356 8.47534 2.192C8.60378 2.32045 8.66756 2.47867 8.66667 2.66667V7.33334H13.3333C13.5222 7.33334 13.6807 7.39734 13.8087 7.52534C13.9367 7.65334 14.0004 7.81156 14 8C13.9996 8.18845 13.9356 8.34689 13.808 8.47534C13.6804 8.60378 13.5222 8.66756 13.3333 8.66667H8.66667V13.3333C8.66667 13.5222 8.60267 13.6807 8.47467 13.8087C8.34667 13.9367 8.18845 14.0004 8 14Z" fill="#929292"/>
</svg>
