<svg width="12" height="12" viewBox="0 0 12 12" fill="none" xmlns="http://www.w3.org/2000/svg">
<path d="M5.99844 6.69844L3.54844 9.14844C3.45677 9.2401 3.3401 9.28594 3.19844 9.28594C3.05677 9.28594 2.9401 9.2401 2.84844 9.14844C2.75677 9.05677 2.71094 8.94011 2.71094 8.79844C2.71094 8.65677 2.75677 8.5401 2.84844 8.44844L5.29844 5.99844L2.84844 3.54844C2.75677 3.45677 2.71094 3.3401 2.71094 3.19844C2.71094 3.05677 2.75677 2.9401 2.84844 2.84844C2.9401 2.75677 3.05677 2.71094 3.19844 2.71094C3.3401 2.71094 3.45677 2.75677 3.54844 2.84844L5.99844 5.29844L8.44844 2.84844C8.5401 2.75677 8.65677 2.71094 8.79844 2.71094C8.94011 2.71094 9.05677 2.75677 9.14844 2.84844C9.2401 2.9401 9.28594 3.05677 9.28594 3.19844C9.28594 3.3401 9.2401 3.45677 9.14844 3.54844L6.69844 5.99844L9.14844 8.44844C9.2401 8.5401 9.28594 8.65677 9.28594 8.79844C9.28594 8.94011 9.2401 9.05677 9.14844 9.14844C9.05677 9.2401 8.94011 9.28594 8.79844 9.28594C8.65677 9.28594 8.5401 9.2401 8.44844 9.14844L5.99844 6.69844Z" fill="#929292"/>
</svg>
