<svg width="16" height="16" viewBox="0 0 16 16" fill="none" xmlns="http://www.w3.org/2000/svg">
<path d="M7.9987 11.332C8.18759 11.332 8.34603 11.268 8.47403 11.14C8.60203 11.012 8.66581 10.8538 8.66537 10.6654V7.9987C8.66537 7.80981 8.60137 7.65159 8.47337 7.52403C8.34537 7.39648 8.18714 7.33248 7.9987 7.33203C7.81025 7.33159 7.65203 7.39559 7.52403 7.52403C7.39603 7.65248 7.33203 7.8107 7.33203 7.9987V10.6654C7.33203 10.8543 7.39603 11.0127 7.52403 11.1407C7.65203 11.2687 7.81025 11.3325 7.9987 11.332ZM7.9987 5.9987C8.18759 5.9987 8.34603 5.9347 8.47403 5.8067C8.60203 5.6787 8.66581 5.52048 8.66537 5.33203C8.66492 5.14359 8.60092 4.98536 8.47337 4.85736C8.34581 4.72936 8.18759 4.66536 7.9987 4.66536C7.80981 4.66536 7.65159 4.72936 7.52403 4.85736C7.39648 4.98536 7.33248 5.14359 7.33203 5.33203C7.33159 5.52048 7.39559 5.67892 7.52403 5.80736C7.65248 5.93581 7.8107 5.99959 7.9987 5.9987ZM7.9987 14.6654C7.07648 14.6654 6.20981 14.4903 5.3987 14.14C4.58759 13.7898 3.88203 13.3149 3.28203 12.7154C2.68203 12.1158 2.20714 11.4103 1.85737 10.5987C1.50759 9.78714 1.33248 8.92048 1.33203 7.9987C1.33159 7.07692 1.5067 6.21025 1.85737 5.3987C2.20803 4.58714 2.68292 3.88159 3.28203 3.28203C3.88114 2.68248 4.5867 2.20759 5.3987 1.85736C6.2107 1.50714 7.07737 1.33203 7.9987 1.33203C8.92003 1.33203 9.7867 1.50714 10.5987 1.85736C11.4107 2.20759 12.1163 2.68248 12.7154 3.28203C13.3145 3.88159 13.7896 4.58714 14.1407 5.3987C14.4918 6.21025 14.6667 7.07692 14.6654 7.9987C14.664 8.92048 14.4889 9.78714 14.14 10.5987C13.7911 11.4103 13.3163 12.1158 12.7154 12.7154C12.1145 13.3149 11.4089 13.79 10.5987 14.1407C9.78848 14.4914 8.92181 14.6663 7.9987 14.6654Z" fill="#C2C2C2"/>
</svg>
